<mxfile host="65bd71144e">
    <diagram id="p18Y7FcIQahrooWUSOSD" name="Page-1">
        <mxGraphModel dx="1347" dy="963" grid="1" gridSize="1" guides="1" tooltips="1" connect="1" arrows="1" fold="1" page="1" pageScale="1" pageWidth="583" pageHeight="827" math="0" shadow="0">
            <root>
                <mxCell id="0"/>
                <mxCell id="1" parent="0"/>
                <mxCell id="60" value="managed-k8s/" style="rounded=0;whiteSpace=wrap;html=1;fontFamily=Courier New;verticalAlign=top;dashed=1;dashPattern=1 1;fillColor=#F2F2F2;opacity=50;" vertex="1" parent="1">
                    <mxGeometry x="688" y="488" width="180" height="204" as="geometry"/>
                </mxCell>
                <mxCell id="8" value="inventory/" style="rounded=0;whiteSpace=wrap;html=1;fontFamily=Courier New;verticalAlign=top;dashed=1;dashPattern=1 1;fillColor=#F2F2F2;opacity=50;" vertex="1" parent="1">
                    <mxGeometry x="688" y="271" width="180" height="213" as="geometry"/>
                </mxCell>
                <mxCell id="52" value="99_custom/" style="rounded=0;whiteSpace=wrap;html=1;dashed=1;dashPattern=1 1;fontFamily=Courier New;verticalAlign=top;fillColor=#E3E3E3;opacity=75;" vertex="1" parent="1">
                    <mxGeometry x="697" y="354" width="160" height="57" as="geometry"/>
                </mxCell>
                <mxCell id="2" value="Harbour&lt;br style=&quot;font-size: 8px;&quot;&gt;Infrastructure&lt;br style=&quot;font-size: 8px;&quot;&gt;Layer" style="rounded=0;whiteSpace=wrap;html=1;fontFamily=Courier New;fillColor=#f5f5f5;verticalAlign=top;strokeColor=#666666;fontColor=#333333;fontSize=8;labelPosition=center;verticalLabelPosition=middle;align=right;spacing=0;spacingRight=5;" vertex="1" parent="1">
                    <mxGeometry x="237" y="557" width="428" height="73" as="geometry"/>
                </mxCell>
                <mxCell id="3" value="actions/" style="rounded=0;whiteSpace=wrap;html=1;fontFamily=Courier New;verticalAlign=top;dashed=1;dashPattern=1 1;fillColor=#F2F2F2;opacity=50;" vertex="1" parent="1">
                    <mxGeometry x="427.5" y="385" width="185" height="98.75" as="geometry"/>
                </mxCell>
                <mxCell id="38" style="edgeStyle=none;html=1;exitX=0.75;exitY=1;exitDx=0;exitDy=0;entryX=0.5;entryY=0;entryDx=0;entryDy=0;dashed=1;opacity=50;rounded=0;" edge="1" parent="1" source="7" target="17">
                    <mxGeometry relative="1" as="geometry">
                        <Array as="points">
                            <mxPoint x="560" y="565"/>
                            <mxPoint x="417" y="565"/>
                        </Array>
                    </mxGeometry>
                </mxCell>
                <mxCell id="39" style="edgeStyle=none;html=1;exitX=0.75;exitY=1;exitDx=0;exitDy=0;entryX=0.5;entryY=0;entryDx=0;entryDy=0;dashed=1;opacity=50;rounded=0;" edge="1" parent="1" source="7" target="14">
                    <mxGeometry relative="1" as="geometry">
                        <Array as="points">
                            <mxPoint x="560" y="565"/>
                            <mxPoint x="300" y="565"/>
                        </Array>
                    </mxGeometry>
                </mxCell>
                <mxCell id="7" value="apply-custom.sh" style="rounded=1;whiteSpace=wrap;html=1;fontFamily=Courier New;strokeColor=#36393d;fillColor=#FFFFFF;" vertex="1" parent="1">
                    <mxGeometry x="440" y="410" width="160" height="60" as="geometry"/>
                </mxCell>
                <mxCell id="10" value=".etc/" style="rounded=0;whiteSpace=wrap;html=1;dashed=1;dashPattern=1 1;fontFamily=Courier New;verticalAlign=top;fillColor=#E3E3E3;opacity=75;" vertex="1" parent="1">
                    <mxGeometry x="697" y="414" width="160" height="65" as="geometry"/>
                </mxCell>
                <mxCell id="14" value="frontend nodes" style="rounded=0;whiteSpace=wrap;html=1;verticalAlign=middle;fontFamily=Courier New;" vertex="1" parent="1">
                    <mxGeometry x="250" y="579" width="100" height="40" as="geometry"/>
                </mxCell>
                <mxCell id="15" value="frontend nodes" style="rounded=0;whiteSpace=wrap;html=1;verticalAlign=middle;fontFamily=Courier New;" vertex="1" parent="1">
                    <mxGeometry x="248" y="581" width="100" height="40" as="geometry"/>
                </mxCell>
                <mxCell id="16" value="frontend&lt;br&gt;nodes" style="rounded=0;whiteSpace=wrap;html=1;verticalAlign=middle;fontFamily=Courier New;" vertex="1" parent="1">
                    <mxGeometry x="246" y="583" width="100" height="40" as="geometry"/>
                </mxCell>
                <mxCell id="17" value="co" style="rounded=0;whiteSpace=wrap;html=1;verticalAlign=middle;fontFamily=Courier New;" vertex="1" parent="1">
                    <mxGeometry x="367" y="579" width="100" height="40" as="geometry"/>
                </mxCell>
                <mxCell id="18" value="frontend nodes" style="rounded=0;whiteSpace=wrap;html=1;verticalAlign=middle;fontFamily=Courier New;" vertex="1" parent="1">
                    <mxGeometry x="365" y="581" width="100" height="40" as="geometry"/>
                </mxCell>
                <mxCell id="19" value="control&lt;br&gt;plane" style="rounded=0;whiteSpace=wrap;html=1;verticalAlign=middle;fontFamily=Courier New;" vertex="1" parent="1">
                    <mxGeometry x="363" y="583" width="100" height="40" as="geometry"/>
                </mxCell>
                <mxCell id="20" value="frontend nodes" style="rounded=0;whiteSpace=wrap;html=1;verticalAlign=middle;fontFamily=Courier New;" vertex="1" parent="1">
                    <mxGeometry x="482" y="579" width="100" height="40" as="geometry"/>
                </mxCell>
                <mxCell id="21" value="frontend nodes" style="rounded=0;whiteSpace=wrap;html=1;verticalAlign=middle;fontFamily=Courier New;" vertex="1" parent="1">
                    <mxGeometry x="480" y="581" width="100" height="40" as="geometry"/>
                </mxCell>
                <mxCell id="22" value="(meta-)&lt;br&gt;worker" style="rounded=0;whiteSpace=wrap;html=1;verticalAlign=middle;fontFamily=Courier New;" vertex="1" parent="1">
                    <mxGeometry x="478" y="583" width="100" height="40" as="geometry"/>
                </mxCell>
                <mxCell id="23" value="" style="rounded=0;whiteSpace=wrap;html=1;fontFamily=Courier New;fillColor=#dae8fc;verticalAlign=middle;strokeColor=#6c8ebf;fontSize=12;labelPosition=center;verticalLabelPosition=middle;align=center;spacing=0;spacingRight=5;" vertex="1" parent="1">
                    <mxGeometry x="237" y="511" width="313" height="40" as="geometry"/>
                </mxCell>
                <mxCell id="24" value="&lt;span style=&quot;font-family: &amp;quot;courier new&amp;quot;; font-size: 12px;&quot;&gt;Kubernetes&lt;br style=&quot;font-size: 12px;&quot;&gt;Cluster&lt;/span&gt;" style="aspect=fixed;html=1;points=[];align=left;image;fontSize=12;image=img/lib/mscae/Kubernetes.svg;labelBackgroundColor=none;labelPosition=right;verticalLabelPosition=middle;verticalAlign=middle;spacing=9;" vertex="1" parent="1">
                    <mxGeometry x="245" y="516.6" width="30" height="28.8" as="geometry"/>
                </mxCell>
                <mxCell id="25" value="admin.conf" style="rounded=0;whiteSpace=wrap;html=1;fontFamily=Courier New;verticalAlign=middle;" vertex="1" parent="1">
                    <mxGeometry x="707" y="439" width="140" height="30" as="geometry"/>
                </mxCell>
                <mxCell id="27" style="edgeStyle=none;html=1;exitX=1;exitY=0.25;exitDx=0;exitDy=0;entryX=0;entryY=0.5;entryDx=0;entryDy=0;fontSize=12;startArrow=classic;startFill=1;fillColor=#e51400;strokeColor=#B20000;rounded=0;endArrow=none;endFill=0;" edge="1" parent="1" source="7" target="25">
                    <mxGeometry relative="1" as="geometry">
                        <Array as="points">
                            <mxPoint x="655" y="425"/>
                            <mxPoint x="680" y="425"/>
                            <mxPoint x="680" y="454"/>
                        </Array>
                    </mxGeometry>
                </mxCell>
                <mxCell id="28" value="API" style="html=1;dashed=0;whitespace=wrap;fillColor=#2875E2;strokeColor=#ffffff;points=[[0.005,0.63,0],[0.1,0.2,0],[0.9,0.2,0],[0.5,0,0],[0.995,0.63,0],[0.72,0.99,0],[0.5,1,0],[0.28,0.99,0]];shape=mxgraph.kubernetes.icon;prIcon=api;fontFamily=Courier New;fontSize=12;align=left;labelPosition=right;verticalLabelPosition=middle;verticalAlign=middle;spacing=4;" vertex="1" parent="1">
                    <mxGeometry x="394" y="517" width="28" height="29" as="geometry"/>
                </mxCell>
                <mxCell id="29" value="&lt;font face=&quot;Courier New&quot;&gt;&lt;br&gt;&lt;/font&gt;" style="edgeStyle=none;rounded=0;html=1;exitX=0;exitY=0.5;exitDx=0;exitDy=0;labelBackgroundColor=none;fontSize=10;startArrow=classic;startFill=1;fillColor=#0050ef;strokeColor=#001DBC;align=left;labelPosition=right;verticalLabelPosition=middle;verticalAlign=middle;spacing=4;entryX=0.504;entryY=0.063;entryDx=0;entryDy=0;entryPerimeter=0;dashed=1;opacity=50;" edge="1" parent="1" source="7" target="28">
                    <mxGeometry x="0.6242" relative="1" as="geometry">
                        <Array as="points">
                            <mxPoint x="408" y="440"/>
                        </Array>
                        <mxPoint as="offset"/>
                        <mxPoint x="409" y="519" as="targetPoint"/>
                    </mxGeometry>
                </mxCell>
                <mxCell id="30" style="edgeStyle=none;html=1;exitX=1;exitY=0.5;exitDx=0;exitDy=0;entryX=0.469;entryY=0.016;entryDx=0;entryDy=0;entryPerimeter=0;fontFamily=Courier New;fontSize=10;endArrow=classic;endFill=1;rounded=0;startArrow=classic;startFill=1;fillColor=#008a00;strokeColor=#005700;opacity=50;dashed=1;" edge="1" parent="1" source="31" target="23">
                    <mxGeometry relative="1" as="geometry">
                        <Array as="points">
                            <mxPoint x="384" y="484"/>
                        </Array>
                    </mxGeometry>
                </mxCell>
                <mxCell id="31" value="" style="rounded=0;whiteSpace=wrap;html=1;fontFamily=Courier New;fillColor=#d5e8d4;verticalAlign=middle;strokeColor=#82b366;fontSize=12;labelPosition=center;verticalLabelPosition=middle;align=center;spacing=0;spacingRight=5;" vertex="1" parent="1">
                    <mxGeometry x="237" y="463" width="118" height="42" as="geometry"/>
                </mxCell>
                <mxCell id="32" value="" style="aspect=fixed;html=1;points=[];align=left;image;fontSize=12;image=img/lib/mscae/Kubernetes_Services.svg;fontFamily=Courier New;labelBackgroundColor=none;labelPosition=right;verticalLabelPosition=middle;verticalAlign=top;spacing=3;spacingBottom=0;" vertex="1" parent="1">
                    <mxGeometry x="242" y="467" width="45.95" height="34" as="geometry"/>
                </mxCell>
                <mxCell id="36" value="" style="shape=image;verticalLabelPosition=bottom;labelBackgroundColor=#ffffff;verticalAlign=top;aspect=fixed;imageAspect=0;image=data:image/svg+xml,PHN2ZyB4bWxucz0iaHR0cDovL3d3dy53My5vcmcvMjAwMC9zdmciIHhtbG5zOnhsaW5rPSJodHRwOi8vd3d3LnczLm9yZy8xOTk5L3hsaW5rIiB2aWV3Qm94PSIwLjQ5OTk5ODA5MjY1MTM2NzIgMC41IDY0IDQyLjMzMTAwNTA5NjQzNTU1IiBmaWxsPSIjZmZmIiBmaWxsLXJ1bGU9ImV2ZW5vZGQiIHN0cm9rZT0iIzAwMCIgc3Ryb2tlLWxpbmVjYXA9InJvdW5kIiBzdHJva2UtbGluZWpvaW49InJvdW5kIiB3aWR0aD0iNjQiIGhlaWdodD0iNDIuMzMxMDA1MDk2NDM1NTUiPjx1c2UgeGxpbms6aHJlZj0iI0EiIHg9Ii41IiB5PSIuNSIvPjxzeW1ib2wgaWQ9IkEiIG92ZXJmbG93PSJ2aXNpYmxlIj48cGF0aCBkPSJNMjMuODYyIDEyLjYzOFY4LjgyMmwxLjEzLS4wNDdjMTAuNDYtLjMzIDE3LjMxMyA4Ljk5OCAxNy4zMTMgOC45OThzLTcuMzk2IDEwLjI3LTE1LjMzNSAxMC4yN2E5LjczIDkuNzMgMCAwIDEtMy4wODYtLjQ5NXYtMTEuNmM0LjA3NS40OTUgNC45IDIuMjg1IDcuMzI2IDYuMzZsNS40NC00LjU3cy0zLjk4LTUuMjA2LTEwLjY3LTUuMjA2Yy0uNzA3LS4wMjQtMS40MTMuMDI0LTIuMTIuMDk0TTIzLjg2IDB2NS43bDEuMTMtLjA3YzE0LjUzNC0uNDk1IDI0LjAyNiAxMS45MiAyNC4wMjYgMTEuOTJzLTEwLjg4IDEzLjI0LTIyLjIgMTMuMjRjLTEgMC0xLjk1NS0uMDk0LTIuOTItLjI2djMuNTMzYy44LjA5NCAxLjYyNS4xNjUgMi40MjYuMTY1IDEwLjU1MyAwIDE4LjE4NS01LjM5NCAyNS41OC0xMS43NTQgMS4yMjUgMSA2LjI0MiAzLjM2OCA3LjI4IDQuNDA1LTcuMDIgNS45LTIzLjQgMTAuNjIzLTMyLjY3IDEwLjYyM2EyMy4yNCAyMy4yNCAwIDAgMS0yLjU5MS0uMTQxdjQuOTdINjRWLjAwMXptMCAyNy41MzZ2My4wMTVDMTQuMSAyOC44MjIgMTEuNCAxOC42NzggMTEuNCAxOC42NzhzNC42ODgtNS4xODIgMTIuNDYtNi4wM3YzLjI5OGgtLjAyNGMtNC4wNzUtLjQ5NS03LjI4IDMuMzItNy4yOCAzLjMyczEuODE0IDYuNDMgNy4zMDIgOC4zbS0xNy4zLTkuM3M1Ljc3LTguNTI3IDE3LjMzNy05LjQyMnYtMy4xQzExLjA3IDYuNzUgMCAxNy41ODYgMCAxNy41ODZzNi4yNjYgMTguMTM4IDIzLjg2MiAxOS43ODd2LTMuMjk4QzEwLjk1NCAzMi40NzMgNi41NSAxOC4yNDUgNi41NSAxOC4yNDV6IiBzdHJva2U9Im5vbmUiIGZpbGw9IiM3NmI5MDAiIGZpbGwtcnVsZT0ibm9uemVybyIvPjwvc3ltYm9sPjwvc3ZnPg==;" vertex="1" parent="1">
                    <mxGeometry x="300.29" y="469" width="45.71" height="30" as="geometry"/>
                </mxCell>
                <mxCell id="37" style="edgeStyle=none;html=1;exitX=0.75;exitY=1;exitDx=0;exitDy=0;entryX=0.782;entryY=-0.014;entryDx=0;entryDy=0;entryPerimeter=0;dashed=1;opacity=50;" edge="1" parent="1" source="7" target="20">
                    <mxGeometry relative="1" as="geometry"/>
                </mxCell>
                <mxCell id="40" value="k8s-base/" style="rounded=0;whiteSpace=wrap;html=1;fontFamily=Courier New;verticalAlign=top;dashed=1;dashPattern=1 1;fillColor=#E3E3E3;opacity=75;" vertex="1" parent="1">
                    <mxGeometry x="698" y="510" width="160" height="55" as="geometry"/>
                </mxCell>
                <mxCell id="46" style="edgeStyle=none;rounded=0;html=1;exitX=0;exitY=0.5;exitDx=0;exitDy=0;entryX=1;entryY=0.75;entryDx=0;entryDy=0;fillColor=#ffcd28;strokeColor=#d79b00;gradientColor=#ffa500;" edge="1" parent="1" source="41" target="7">
                    <mxGeometry relative="1" as="geometry">
                        <Array as="points">
                            <mxPoint x="671" y="548"/>
                            <mxPoint x="671" y="455"/>
                        </Array>
                    </mxGeometry>
                </mxCell>
                <mxCell id="41" value="roles/" style="rounded=0;whiteSpace=wrap;html=1;dashed=1;dashPattern=1 1;fontFamily=Courier New;verticalAlign=top;fillColor=#FFFFFF;" vertex="1" parent="1">
                    <mxGeometry x="708.5" y="535" width="140" height="26" as="geometry"/>
                </mxCell>
                <mxCell id="42" value="k8s-managed-services/" style="rounded=0;whiteSpace=wrap;html=1;fontFamily=Courier New;verticalAlign=top;dashed=1;dashPattern=1 1;fillColor=#E3E3E3;opacity=75;" vertex="1" parent="1">
                    <mxGeometry x="698.5" y="570" width="160" height="55" as="geometry"/>
                </mxCell>
                <mxCell id="47" style="edgeStyle=none;rounded=0;html=1;exitX=0;exitY=0.5;exitDx=0;exitDy=0;entryX=1;entryY=0.75;entryDx=0;entryDy=0;fillColor=#ffcd28;gradientColor=#ffa500;strokeColor=#d79b00;" edge="1" parent="1" source="43" target="7">
                    <mxGeometry relative="1" as="geometry">
                        <Array as="points">
                            <mxPoint x="671" y="608"/>
                            <mxPoint x="671" y="455"/>
                        </Array>
                    </mxGeometry>
                </mxCell>
                <mxCell id="43" value="roles/" style="rounded=0;whiteSpace=wrap;html=1;dashed=1;dashPattern=1 1;fontFamily=Courier New;verticalAlign=top;fillColor=#FFFFFF;" vertex="1" parent="1">
                    <mxGeometry x="708" y="595" width="140" height="26" as="geometry"/>
                </mxCell>
                <mxCell id="44" value="k8s-service-layer/" style="rounded=0;whiteSpace=wrap;html=1;fontFamily=Courier New;verticalAlign=top;dashed=1;dashPattern=1 1;fillColor=#E3E3E3;opacity=75;" vertex="1" parent="1">
                    <mxGeometry x="698.5" y="631" width="160" height="55" as="geometry"/>
                </mxCell>
                <mxCell id="45" value="roles/" style="rounded=0;whiteSpace=wrap;html=1;dashed=1;dashPattern=1 1;fontFamily=Courier New;verticalAlign=top;fillColor=#FFFFFF;" vertex="1" parent="1">
                    <mxGeometry x="708.5" y="655" width="140" height="26" as="geometry"/>
                </mxCell>
                <mxCell id="59" style="edgeStyle=none;rounded=0;html=1;exitX=0;exitY=0.5;exitDx=0;exitDy=0;labelBackgroundColor=none;fontFamily=Courier New;fontSize=12;startArrow=none;startFill=0;entryX=1;entryY=0.25;entryDx=0;entryDy=0;fillColor=#e51400;strokeColor=#B20000;" edge="1" parent="1" source="53" target="7">
                    <mxGeometry relative="1" as="geometry">
                        <mxPoint x="650" y="405" as="targetPoint"/>
                        <Array as="points">
                            <mxPoint x="680" y="392"/>
                            <mxPoint x="680" y="425"/>
                        </Array>
                    </mxGeometry>
                </mxCell>
                <mxCell id="53" value="hosts" style="rounded=0;whiteSpace=wrap;html=1;fontFamily=Courier New;verticalAlign=middle;" vertex="1" parent="1">
                    <mxGeometry x="742" y="377" width="70" height="30" as="geometry"/>
                </mxCell>
                <mxCell id="56" value="02_trampoline/" style="rounded=0;whiteSpace=wrap;html=1;dashed=1;dashPattern=1 1;fontFamily=Courier New;verticalAlign=top;fillColor=#E3E3E3;opacity=75;" vertex="1" parent="1">
                    <mxGeometry x="697" y="294" width="160" height="57" as="geometry"/>
                </mxCell>
                <mxCell id="58" style="edgeStyle=none;rounded=0;html=1;exitX=1;exitY=0.5;exitDx=0;exitDy=0;entryX=1;entryY=0.5;entryDx=0;entryDy=0;labelBackgroundColor=none;fontFamily=Courier New;fontSize=12;startArrow=classic;startFill=1;fillColor=#1ba1e2;strokeColor=#006EAF;" edge="1" parent="1" source="57" target="53">
                    <mxGeometry relative="1" as="geometry">
                        <Array as="points">
                            <mxPoint x="830" y="332"/>
                            <mxPoint x="830" y="392"/>
                        </Array>
                    </mxGeometry>
                </mxCell>
                <mxCell id="57" value="hosts" style="rounded=0;whiteSpace=wrap;html=1;fontFamily=Courier New;verticalAlign=middle;" vertex="1" parent="1">
                    <mxGeometry x="742" y="317" width="70" height="30" as="geometry"/>
                </mxCell>
                <mxCell id="49" value="" style="html=1;verticalLabelPosition=bottom;align=center;labelBackgroundColor=#ffffff;verticalAlign=top;strokeWidth=2;strokeColor=#006EAF;shadow=0;dashed=0;shape=mxgraph.ios7.icons.link;fontFamily=Courier New;fontSize=10;fillColor=#1ba1e2;fontColor=#ffffff;" vertex="1" parent="1">
                    <mxGeometry x="833" y="359" width="10" height="10" as="geometry"/>
                </mxCell>
                <mxCell id="48" value="" style="edgeStyle=none;rounded=0;html=1;exitX=0;exitY=0.5;exitDx=0;exitDy=0;entryX=1;entryY=0.75;entryDx=0;entryDy=0;fillColor=#ffcd28;gradientColor=#ffa500;strokeColor=#d79b00;labelBackgroundColor=none;labelPosition=center;verticalLabelPosition=bottom;align=center;verticalAlign=middle;spacing=1;fontSize=10;" edge="1" parent="1" source="45" target="7">
                    <mxGeometry x="0.7083" y="8" relative="1" as="geometry">
                        <Array as="points">
                            <mxPoint x="671" y="668"/>
                            <mxPoint x="671" y="527"/>
                            <mxPoint x="671" y="455"/>
                        </Array>
                        <mxPoint as="offset"/>
                    </mxGeometry>
                </mxCell>
            </root>
        </mxGraphModel>
    </diagram>
</mxfile>